<mxfile host="app.diagrams.net" modified="2021-06-30T09:02:47.162Z" agent="5.0 (Windows NT 10.0; Win64; x64) AppleWebKit/537.36 (KHTML, like Gecko) Chrome/91.0.4472.114 Safari/537.36" etag="oU2sIFXJ3A7elQXBVmCZ" version="14.8.2" type="github">
  <diagram name="Page-1" id="efa7a0a1-bf9b-a30e-e6df-94a7791c09e9">
    <mxGraphModel dx="1422" dy="762" grid="1" gridSize="10" guides="1" tooltips="1" connect="1" arrows="1" fold="1" page="1" pageScale="1" pageWidth="1169" pageHeight="827" background="none" math="0" shadow="0">
      <root>
        <mxCell id="0" />
        <mxCell id="1" parent="0" />
        <mxCell id="0HyxOfl09r36-qcPs7RD-114" value="ctr" style="swimlane;fontStyle=0;childLayout=stackLayout;horizontal=1;startSize=26;horizontalStack=0;resizeParent=1;resizeParentMax=0;resizeLast=0;collapsible=1;marginBottom=0;" vertex="1" parent="1">
          <mxGeometry x="260" y="10" width="140" height="104" as="geometry" />
        </mxCell>
        <mxCell id="0HyxOfl09r36-qcPs7RD-115" value="id" style="text;strokeColor=none;fillColor=none;align=left;verticalAlign=top;spacingLeft=4;spacingRight=4;overflow=hidden;rotatable=0;points=[[0,0.5],[1,0.5]];portConstraint=eastwest;" vertex="1" parent="0HyxOfl09r36-qcPs7RD-114">
          <mxGeometry y="26" width="140" height="26" as="geometry" />
        </mxCell>
        <mxCell id="0HyxOfl09r36-qcPs7RD-193" value="model_id&#xa;&#xa;" style="text;strokeColor=none;fillColor=none;align=left;verticalAlign=top;spacingLeft=4;spacingRight=4;overflow=hidden;rotatable=0;points=[[0,0.5],[1,0.5]];portConstraint=eastwest;" vertex="1" parent="0HyxOfl09r36-qcPs7RD-114">
          <mxGeometry y="52" width="140" height="26" as="geometry" />
        </mxCell>
        <mxCell id="0HyxOfl09r36-qcPs7RD-116" value="sn" style="text;strokeColor=none;fillColor=none;align=left;verticalAlign=top;spacingLeft=4;spacingRight=4;overflow=hidden;rotatable=0;points=[[0,0.5],[1,0.5]];portConstraint=eastwest;" vertex="1" parent="0HyxOfl09r36-qcPs7RD-114">
          <mxGeometry y="78" width="140" height="26" as="geometry" />
        </mxCell>
        <mxCell id="0HyxOfl09r36-qcPs7RD-119" value="prn_model" style="swimlane;fontStyle=0;childLayout=stackLayout;horizontal=1;startSize=26;horizontalStack=0;resizeParent=1;resizeParentMax=0;resizeLast=0;collapsible=1;marginBottom=0;" vertex="1" parent="1">
          <mxGeometry x="848" y="90" width="140" height="104" as="geometry" />
        </mxCell>
        <mxCell id="0HyxOfl09r36-qcPs7RD-120" value="id" style="text;strokeColor=none;fillColor=none;align=left;verticalAlign=top;spacingLeft=4;spacingRight=4;overflow=hidden;rotatable=0;points=[[0,0.5],[1,0.5]];portConstraint=eastwest;" vertex="1" parent="0HyxOfl09r36-qcPs7RD-119">
          <mxGeometry y="26" width="140" height="26" as="geometry" />
        </mxCell>
        <mxCell id="0HyxOfl09r36-qcPs7RD-121" value="name" style="text;strokeColor=none;fillColor=none;align=left;verticalAlign=top;spacingLeft=4;spacingRight=4;overflow=hidden;rotatable=0;points=[[0,0.5],[1,0.5]];portConstraint=eastwest;" vertex="1" parent="0HyxOfl09r36-qcPs7RD-119">
          <mxGeometry y="52" width="140" height="26" as="geometry" />
        </mxCell>
        <mxCell id="0HyxOfl09r36-qcPs7RD-157" value="vendor_id" style="text;strokeColor=none;fillColor=none;align=left;verticalAlign=top;spacingLeft=4;spacingRight=4;overflow=hidden;rotatable=0;points=[[0,0.5],[1,0.5]];portConstraint=eastwest;" vertex="1" parent="0HyxOfl09r36-qcPs7RD-119">
          <mxGeometry y="78" width="140" height="26" as="geometry" />
        </mxCell>
        <mxCell id="0HyxOfl09r36-qcPs7RD-123" value="ctr_model" style="swimlane;fontStyle=0;childLayout=stackLayout;horizontal=1;startSize=26;horizontalStack=0;resizeParent=1;resizeParentMax=0;resizeLast=0;collapsible=1;marginBottom=0;" vertex="1" parent="1">
          <mxGeometry x="460" y="62" width="140" height="104" as="geometry" />
        </mxCell>
        <mxCell id="0HyxOfl09r36-qcPs7RD-124" value="id" style="text;strokeColor=none;fillColor=none;align=left;verticalAlign=top;spacingLeft=4;spacingRight=4;overflow=hidden;rotatable=0;points=[[0,0.5],[1,0.5]];portConstraint=eastwest;" vertex="1" parent="0HyxOfl09r36-qcPs7RD-123">
          <mxGeometry y="26" width="140" height="26" as="geometry" />
        </mxCell>
        <mxCell id="0HyxOfl09r36-qcPs7RD-164" value="name" style="text;strokeColor=none;fillColor=none;align=left;verticalAlign=top;spacingLeft=4;spacingRight=4;overflow=hidden;rotatable=0;points=[[0,0.5],[1,0.5]];portConstraint=eastwest;" vertex="1" parent="0HyxOfl09r36-qcPs7RD-123">
          <mxGeometry y="52" width="140" height="26" as="geometry" />
        </mxCell>
        <mxCell id="0HyxOfl09r36-qcPs7RD-125" value="vendor_id" style="text;strokeColor=none;fillColor=none;align=left;verticalAlign=top;spacingLeft=4;spacingRight=4;overflow=hidden;rotatable=0;points=[[0,0.5],[1,0.5]];portConstraint=eastwest;" vertex="1" parent="0HyxOfl09r36-qcPs7RD-123">
          <mxGeometry y="78" width="140" height="26" as="geometry" />
        </mxCell>
        <mxCell id="0HyxOfl09r36-qcPs7RD-143" value="ctr_supp_printer" style="swimlane;fontStyle=0;childLayout=stackLayout;horizontal=1;startSize=26;horizontalStack=0;resizeParent=1;resizeParentMax=0;resizeLast=0;collapsible=1;marginBottom=0;" vertex="1" parent="1">
          <mxGeometry x="670" y="60" width="140" height="78" as="geometry" />
        </mxCell>
        <mxCell id="0HyxOfl09r36-qcPs7RD-144" value="ctr_model_id" style="text;strokeColor=none;fillColor=none;align=left;verticalAlign=top;spacingLeft=4;spacingRight=4;overflow=hidden;rotatable=0;points=[[0,0.5],[1,0.5]];portConstraint=eastwest;" vertex="1" parent="0HyxOfl09r36-qcPs7RD-143">
          <mxGeometry y="26" width="140" height="26" as="geometry" />
        </mxCell>
        <mxCell id="0HyxOfl09r36-qcPs7RD-145" value="prn_model_id" style="text;strokeColor=none;fillColor=none;align=left;verticalAlign=top;spacingLeft=4;spacingRight=4;overflow=hidden;rotatable=0;points=[[0,0.5],[1,0.5]];portConstraint=eastwest;" vertex="1" parent="0HyxOfl09r36-qcPs7RD-143">
          <mxGeometry y="52" width="140" height="26" as="geometry" />
        </mxCell>
        <mxCell id="0HyxOfl09r36-qcPs7RD-154" value="" style="endArrow=classic;html=1;" edge="1" parent="1" source="0HyxOfl09r36-qcPs7RD-144" target="0HyxOfl09r36-qcPs7RD-124">
          <mxGeometry width="50" height="50" relative="1" as="geometry">
            <mxPoint x="570" y="350" as="sourcePoint" />
            <mxPoint x="580" y="101" as="targetPoint" />
          </mxGeometry>
        </mxCell>
        <mxCell id="0HyxOfl09r36-qcPs7RD-156" value="" style="endArrow=classic;html=1;" edge="1" parent="1" source="0HyxOfl09r36-qcPs7RD-145" target="0HyxOfl09r36-qcPs7RD-120">
          <mxGeometry width="50" height="50" relative="1" as="geometry">
            <mxPoint x="570" y="350" as="sourcePoint" />
            <mxPoint x="620" y="300" as="targetPoint" />
          </mxGeometry>
        </mxCell>
        <mxCell id="0HyxOfl09r36-qcPs7RD-158" value="vendor" style="swimlane;fontStyle=0;childLayout=stackLayout;horizontal=1;startSize=26;horizontalStack=0;resizeParent=1;resizeParentMax=0;resizeLast=0;collapsible=1;marginBottom=0;" vertex="1" parent="1">
          <mxGeometry x="848" y="230" width="140" height="78" as="geometry">
            <mxRectangle x="826" y="244" width="70" height="26" as="alternateBounds" />
          </mxGeometry>
        </mxCell>
        <mxCell id="0HyxOfl09r36-qcPs7RD-159" value="id" style="text;strokeColor=none;fillColor=none;align=left;verticalAlign=top;spacingLeft=4;spacingRight=4;overflow=hidden;rotatable=0;points=[[0,0.5],[1,0.5]];portConstraint=eastwest;" vertex="1" parent="0HyxOfl09r36-qcPs7RD-158">
          <mxGeometry y="26" width="140" height="26" as="geometry" />
        </mxCell>
        <mxCell id="0HyxOfl09r36-qcPs7RD-160" value="name" style="text;strokeColor=none;fillColor=none;align=left;verticalAlign=top;spacingLeft=4;spacingRight=4;overflow=hidden;rotatable=0;points=[[0,0.5],[1,0.5]];portConstraint=eastwest;" vertex="1" parent="0HyxOfl09r36-qcPs7RD-158">
          <mxGeometry y="52" width="140" height="26" as="geometry" />
        </mxCell>
        <mxCell id="0HyxOfl09r36-qcPs7RD-165" value="" style="endArrow=classic;html=1;exitX=0;exitY=0.5;exitDx=0;exitDy=0;" edge="1" parent="1" source="0HyxOfl09r36-qcPs7RD-159" target="0HyxOfl09r36-qcPs7RD-157">
          <mxGeometry width="50" height="50" relative="1" as="geometry">
            <mxPoint x="518" y="350" as="sourcePoint" />
            <mxPoint x="568" y="300" as="targetPoint" />
            <Array as="points">
              <mxPoint x="788" y="269" />
              <mxPoint x="788" y="181" />
            </Array>
          </mxGeometry>
        </mxCell>
        <mxCell id="0HyxOfl09r36-qcPs7RD-166" value="" style="endArrow=classic;html=1;" edge="1" parent="1" source="0HyxOfl09r36-qcPs7RD-159" target="0HyxOfl09r36-qcPs7RD-125">
          <mxGeometry width="50" height="50" relative="1" as="geometry">
            <mxPoint x="570" y="350" as="sourcePoint" />
            <mxPoint x="620" y="300" as="targetPoint" />
            <Array as="points">
              <mxPoint x="690" y="269" />
              <mxPoint x="690" y="153" />
            </Array>
          </mxGeometry>
        </mxCell>
        <mxCell id="0HyxOfl09r36-qcPs7RD-167" value="" style="endArrow=classic;html=1;" edge="1" parent="1" source="0HyxOfl09r36-qcPs7RD-124" target="0HyxOfl09r36-qcPs7RD-116">
          <mxGeometry width="50" height="50" relative="1" as="geometry">
            <mxPoint x="570" y="350" as="sourcePoint" />
            <mxPoint x="620" y="300" as="targetPoint" />
          </mxGeometry>
        </mxCell>
        <mxCell id="0HyxOfl09r36-qcPs7RD-173" value="ctr_status" style="swimlane;fontStyle=0;childLayout=stackLayout;horizontal=1;startSize=26;horizontalStack=0;resizeParent=1;resizeParentMax=0;resizeLast=0;collapsible=1;marginBottom=0;" vertex="1" parent="1">
          <mxGeometry x="250" y="177" width="140" height="182" as="geometry" />
        </mxCell>
        <mxCell id="0HyxOfl09r36-qcPs7RD-174" value="ctr_id" style="text;strokeColor=none;fillColor=none;align=left;verticalAlign=top;spacingLeft=4;spacingRight=4;overflow=hidden;rotatable=0;points=[[0,0.5],[1,0.5]];portConstraint=eastwest;" vertex="1" parent="0HyxOfl09r36-qcPs7RD-173">
          <mxGeometry y="26" width="140" height="26" as="geometry" />
        </mxCell>
        <mxCell id="0HyxOfl09r36-qcPs7RD-175" value="status_change_on" style="text;strokeColor=none;fillColor=none;align=left;verticalAlign=top;spacingLeft=4;spacingRight=4;overflow=hidden;rotatable=0;points=[[0,0.5],[1,0.5]];portConstraint=eastwest;" vertex="1" parent="0HyxOfl09r36-qcPs7RD-173">
          <mxGeometry y="52" width="140" height="26" as="geometry" />
        </mxCell>
        <mxCell id="0HyxOfl09r36-qcPs7RD-191" value="status_id" style="text;strokeColor=none;fillColor=none;align=left;verticalAlign=top;spacingLeft=4;spacingRight=4;overflow=hidden;rotatable=0;points=[[0,0.5],[1,0.5]];portConstraint=eastwest;" vertex="1" parent="0HyxOfl09r36-qcPs7RD-173">
          <mxGeometry y="78" width="140" height="26" as="geometry" />
        </mxCell>
        <mxCell id="0HyxOfl09r36-qcPs7RD-176" value="ou_id" style="text;strokeColor=none;fillColor=none;align=left;verticalAlign=top;spacingLeft=4;spacingRight=4;overflow=hidden;rotatable=0;points=[[0,0.5],[1,0.5]];portConstraint=eastwest;" vertex="1" parent="0HyxOfl09r36-qcPs7RD-173">
          <mxGeometry y="104" width="140" height="26" as="geometry" />
        </mxCell>
        <mxCell id="0HyxOfl09r36-qcPs7RD-200" value="delivered_by" style="text;strokeColor=none;fillColor=none;align=left;verticalAlign=top;spacingLeft=4;spacingRight=4;overflow=hidden;rotatable=0;points=[[0,0.5],[1,0.5]];portConstraint=eastwest;" vertex="1" parent="0HyxOfl09r36-qcPs7RD-173">
          <mxGeometry y="130" width="140" height="26" as="geometry" />
        </mxCell>
        <mxCell id="0HyxOfl09r36-qcPs7RD-201" value="accepted_by" style="text;strokeColor=none;fillColor=none;align=left;verticalAlign=top;spacingLeft=4;spacingRight=4;overflow=hidden;rotatable=0;points=[[0,0.5],[1,0.5]];portConstraint=eastwest;" vertex="1" parent="0HyxOfl09r36-qcPs7RD-173">
          <mxGeometry y="156" width="140" height="26" as="geometry" />
        </mxCell>
        <mxCell id="0HyxOfl09r36-qcPs7RD-181" value="ctr_status_type" style="swimlane;fontStyle=0;childLayout=stackLayout;horizontal=1;startSize=26;horizontalStack=0;resizeParent=1;resizeParentMax=0;resizeLast=0;collapsible=1;marginBottom=0;" vertex="1" parent="1">
          <mxGeometry x="430" y="229" width="140" height="78" as="geometry" />
        </mxCell>
        <mxCell id="0HyxOfl09r36-qcPs7RD-182" value="id" style="text;strokeColor=none;fillColor=none;align=left;verticalAlign=top;spacingLeft=4;spacingRight=4;overflow=hidden;rotatable=0;points=[[0,0.5],[1,0.5]];portConstraint=eastwest;" vertex="1" parent="0HyxOfl09r36-qcPs7RD-181">
          <mxGeometry y="26" width="140" height="26" as="geometry" />
        </mxCell>
        <mxCell id="0HyxOfl09r36-qcPs7RD-183" value="name" style="text;strokeColor=none;fillColor=none;align=left;verticalAlign=top;spacingLeft=4;spacingRight=4;overflow=hidden;rotatable=0;points=[[0,0.5],[1,0.5]];portConstraint=eastwest;" vertex="1" parent="0HyxOfl09r36-qcPs7RD-181">
          <mxGeometry y="52" width="140" height="26" as="geometry" />
        </mxCell>
        <mxCell id="0HyxOfl09r36-qcPs7RD-185" value="" style="endArrow=classic;html=1;" edge="1" parent="1" source="0HyxOfl09r36-qcPs7RD-182" target="0HyxOfl09r36-qcPs7RD-191">
          <mxGeometry width="50" height="50" relative="1" as="geometry">
            <mxPoint x="570" y="277" as="sourcePoint" />
            <mxPoint x="620" y="227" as="targetPoint" />
          </mxGeometry>
        </mxCell>
        <mxCell id="0HyxOfl09r36-qcPs7RD-186" value="" style="endArrow=classic;html=1;" edge="1" parent="1" source="0HyxOfl09r36-qcPs7RD-115" target="0HyxOfl09r36-qcPs7RD-174">
          <mxGeometry width="50" height="50" relative="1" as="geometry">
            <mxPoint x="570" y="350" as="sourcePoint" />
            <mxPoint x="620" y="300" as="targetPoint" />
            <Array as="points">
              <mxPoint x="210" y="49" />
              <mxPoint x="210" y="73" />
              <mxPoint x="210" y="220" />
            </Array>
          </mxGeometry>
        </mxCell>
        <mxCell id="0HyxOfl09r36-qcPs7RD-187" value="ou" style="swimlane;fontStyle=0;childLayout=stackLayout;horizontal=1;startSize=26;horizontalStack=0;resizeParent=1;resizeParentMax=0;resizeLast=0;collapsible=1;marginBottom=0;" vertex="1" parent="1">
          <mxGeometry x="50" y="257" width="140" height="78" as="geometry" />
        </mxCell>
        <mxCell id="0HyxOfl09r36-qcPs7RD-188" value="id" style="text;strokeColor=none;fillColor=none;align=left;verticalAlign=top;spacingLeft=4;spacingRight=4;overflow=hidden;rotatable=0;points=[[0,0.5],[1,0.5]];portConstraint=eastwest;" vertex="1" parent="0HyxOfl09r36-qcPs7RD-187">
          <mxGeometry y="26" width="140" height="26" as="geometry" />
        </mxCell>
        <mxCell id="0HyxOfl09r36-qcPs7RD-189" value="name" style="text;strokeColor=none;fillColor=none;align=left;verticalAlign=top;spacingLeft=4;spacingRight=4;overflow=hidden;rotatable=0;points=[[0,0.5],[1,0.5]];portConstraint=eastwest;" vertex="1" parent="0HyxOfl09r36-qcPs7RD-187">
          <mxGeometry y="52" width="140" height="26" as="geometry" />
        </mxCell>
        <mxCell id="0HyxOfl09r36-qcPs7RD-192" value="" style="endArrow=classic;html=1;" edge="1" parent="1" source="0HyxOfl09r36-qcPs7RD-188" target="0HyxOfl09r36-qcPs7RD-176">
          <mxGeometry width="50" height="50" relative="1" as="geometry">
            <mxPoint x="570" y="277" as="sourcePoint" />
            <mxPoint x="620" y="227" as="targetPoint" />
          </mxGeometry>
        </mxCell>
        <mxCell id="0HyxOfl09r36-qcPs7RD-194" value="&lt;span style=&quot;font-size: 10px&quot;&gt;заправлен, на складе;&lt;br&gt;эксплуатируется;&lt;br&gt;пустой, на складе;&lt;br&gt;на заправке;&lt;br&gt;выведен из обращения&lt;br&gt;&lt;/span&gt;" style="text;html=1;align=left;verticalAlign=middle;resizable=0;points=[];autosize=1;strokeColor=none;" vertex="1" parent="1">
          <mxGeometry x="430" y="307" width="120" height="80" as="geometry" />
        </mxCell>
        <mxCell id="0HyxOfl09r36-qcPs7RD-202" value="employee" style="swimlane;fontStyle=0;childLayout=stackLayout;horizontal=1;startSize=26;horizontalStack=0;resizeParent=1;resizeParentMax=0;resizeLast=0;collapsible=1;marginBottom=0;" vertex="1" parent="1">
          <mxGeometry x="50" y="387" width="140" height="78" as="geometry" />
        </mxCell>
        <mxCell id="0HyxOfl09r36-qcPs7RD-203" value="id" style="text;strokeColor=none;fillColor=none;align=left;verticalAlign=top;spacingLeft=4;spacingRight=4;overflow=hidden;rotatable=0;points=[[0,0.5],[1,0.5]];portConstraint=eastwest;" vertex="1" parent="0HyxOfl09r36-qcPs7RD-202">
          <mxGeometry y="26" width="140" height="26" as="geometry" />
        </mxCell>
        <mxCell id="0HyxOfl09r36-qcPs7RD-204" value="name" style="text;strokeColor=none;fillColor=none;align=left;verticalAlign=top;spacingLeft=4;spacingRight=4;overflow=hidden;rotatable=0;points=[[0,0.5],[1,0.5]];portConstraint=eastwest;" vertex="1" parent="0HyxOfl09r36-qcPs7RD-202">
          <mxGeometry y="52" width="140" height="26" as="geometry" />
        </mxCell>
        <mxCell id="0HyxOfl09r36-qcPs7RD-206" value="" style="endArrow=classic;html=1;" edge="1" parent="1" source="0HyxOfl09r36-qcPs7RD-203" target="0HyxOfl09r36-qcPs7RD-200">
          <mxGeometry width="50" height="50" relative="1" as="geometry">
            <mxPoint x="570" y="407" as="sourcePoint" />
            <mxPoint x="620" y="357" as="targetPoint" />
            <Array as="points">
              <mxPoint x="210" y="426" />
              <mxPoint x="210" y="324" />
            </Array>
          </mxGeometry>
        </mxCell>
        <mxCell id="0HyxOfl09r36-qcPs7RD-207" value="" style="endArrow=classic;html=1;" edge="1" parent="1" source="0HyxOfl09r36-qcPs7RD-203" target="0HyxOfl09r36-qcPs7RD-201">
          <mxGeometry width="50" height="50" relative="1" as="geometry">
            <mxPoint x="570" y="407" as="sourcePoint" />
            <mxPoint x="620" y="357" as="targetPoint" />
            <Array as="points">
              <mxPoint x="220" y="426" />
              <mxPoint x="220" y="346" />
            </Array>
          </mxGeometry>
        </mxCell>
      </root>
    </mxGraphModel>
  </diagram>
</mxfile>
